<svg width="170" height="31" viewBox="0 0 170 31" fill="none" xmlns="http://www.w3.org/2000/svg">
<path d="M21.864 2.688C22.6533 2.688 23.2613 2.85867 23.688 3.2C24.136 3.54133 24.36 4.01067 24.36 4.608C24.36 4.90667 24.3173 5.19467 24.232 5.472L23.4 8.448C23.2507 9.00267 23.0053 9.39733 22.664 9.632C22.3227 9.86667 21.8747 9.984 21.32 9.984C20.7867 9.984 20.36 9.87733 20.04 9.664C19.72 9.42933 19.4853 9.056 19.336 8.544L18.824 6.72C18.7387 6.4 18.632 6.18667 18.504 6.08C18.376 5.97333 18.1093 5.92 17.704 5.92H14.504L12.712 12.256H13.32C13.6187 12.256 13.8747 12.2133 14.088 12.128C14.3227 12.0427 14.568 11.8827 14.824 11.648L15.816 10.816C16.1787 10.496 16.4987 10.272 16.776 10.144C17.0747 9.99467 17.384 9.92 17.704 9.92C18.1093 9.92 18.44 10.0373 18.696 10.272C18.9733 10.5067 19.112 10.8373 19.112 11.264C19.112 11.4347 19.08 11.6373 19.016 11.872L17.608 16.736C17.288 17.7813 16.712 18.304 15.88 18.304C15.1973 18.304 14.664 17.952 14.28 17.248L13.704 16.16C13.5547 15.8613 13.416 15.6693 13.288 15.584C13.16 15.4987 12.968 15.456 12.712 15.456H11.784L10.44 20.224C10.3973 20.352 10.376 20.5227 10.376 20.736C10.376 21.0347 10.44 21.28 10.568 21.472C10.7173 21.664 10.9307 21.8667 11.208 22.08C11.4427 22.272 11.6027 22.432 11.688 22.56C11.7733 22.6667 11.816 22.8053 11.816 22.976C11.816 23.36 11.6453 23.6267 11.304 23.776C10.9627 23.9253 10.4613 24 9.8 24H1.768C1.21333 24 0.797333 23.904 0.52 23.712C0.242667 23.4987 0.146667 23.2107 0.232 22.848C0.274667 22.656 0.36 22.5067 0.488 22.4C0.594667 22.272 0.765333 22.1333 1 21.984C1.36267 21.7707 1.65067 21.5467 1.864 21.312C2.07733 21.0773 2.248 20.7147 2.376 20.224L6.312 6.432C6.39733 6.15467 6.44 5.89867 6.44 5.664C6.44 5.408 6.39733 5.19467 6.312 5.024C6.248 4.85333 6.14133 4.672 5.992 4.48C5.8 4.20267 5.704 3.97867 5.704 3.808C5.704 3.744 5.72533 3.62667 5.768 3.456C5.85333 3.17867 6.04533 2.98667 6.344 2.88C6.64267 2.752 7.08 2.688 7.656 2.688H21.864ZM29.6035 7.072C30.8408 7.072 31.7475 7.30667 32.3235 7.776C32.8995 8.24533 33.1875 8.88533 33.1875 9.696C33.1875 10.1867 33.1128 10.656 32.9635 11.104L30.0195 20.672C29.9555 20.928 29.9235 21.152 29.9235 21.344C29.9235 21.6213 29.9768 21.8453 30.0835 22.016C30.1902 22.1653 30.3395 22.3147 30.5315 22.464C30.6808 22.6133 30.7875 22.7413 30.8515 22.848C30.9155 22.9333 30.9262 23.0507 30.8835 23.2C30.7768 23.4773 30.5635 23.68 30.2435 23.808C29.9235 23.936 29.4328 24 28.7715 24H21.4755C20.9208 24 20.5155 23.9147 20.2595 23.744C20.0035 23.552 19.9182 23.3067 20.0035 23.008C20.0888 22.752 20.3128 22.528 20.6755 22.336C20.9955 22.1653 21.2622 21.9627 21.4755 21.728C21.6888 21.4933 21.8702 21.12 22.0195 20.608L24.8035 11.36C24.8675 11.168 24.8995 11.008 24.8995 10.88C24.8995 10.6453 24.8462 10.464 24.7395 10.336C24.6328 10.1867 24.4728 10.0373 24.2595 9.888C24.0462 9.71733 23.8968 9.568 23.8115 9.44C23.7262 9.312 23.7155 9.14133 23.7795 8.928C23.9075 8.43733 24.5795 8.01067 25.7955 7.648C27.0115 7.264 28.2808 7.072 29.6035 7.072ZM31.7475 -1.90735e-06C32.5795 -1.90735e-06 33.2728 0.277332 33.8275 0.831999C34.3822 1.36533 34.6595 2.02666 34.6595 2.816C34.6595 3.37067 34.5102 3.91467 34.2115 4.448C33.9342 4.98133 33.5288 5.41867 32.9955 5.76C32.4835 6.08 31.9075 6.24 31.2675 6.24C30.4568 6.24 29.7742 5.97333 29.2195 5.44C28.6862 4.88533 28.4088 4.20267 28.3875 3.392C28.3875 2.85867 28.5262 2.336 28.8035 1.824C29.0808 1.29067 29.4755 0.853332 29.9875 0.511999C30.4995 0.170665 31.0862 -1.90735e-06 31.7475 -1.90735e-06ZM52.7143 19.584C52.6716 19.6693 52.6503 19.7973 52.6503 19.968C52.6503 20.1173 52.6823 20.2347 52.7463 20.32C52.8316 20.4053 52.9383 20.448 53.0663 20.448C53.3223 20.448 53.5356 20.3413 53.7063 20.128C53.8983 19.8933 54.0263 19.776 54.0903 19.776C54.1969 19.776 54.2823 19.8507 54.3463 20C54.4103 20.128 54.4423 20.288 54.4423 20.48C54.4636 21.0987 54.2609 21.7067 53.8343 22.304C53.4076 22.88 52.7783 23.36 51.9463 23.744C51.1356 24.1067 50.1543 24.288 49.0023 24.288C47.5943 24.288 46.4743 23.968 45.6423 23.328C44.8103 22.6667 44.3836 21.792 44.3623 20.704C44.3623 19.9147 44.5543 19.0293 44.9383 18.048L46.6983 13.44C46.8049 13.1627 46.8583 12.9387 46.8583 12.768C46.8583 12.4907 46.7623 12.2773 46.5703 12.128C46.3996 11.9573 46.1863 11.872 45.9303 11.872C45.4609 11.872 45.0129 12.096 44.5863 12.544C44.1596 12.9707 43.8503 13.504 43.6583 14.144L41.6743 20.672C41.5889 20.9067 41.5463 21.1307 41.5463 21.344C41.5463 21.6 41.5996 21.8133 41.7063 21.984C41.8129 22.1333 41.9623 22.2933 42.1543 22.464C42.3036 22.592 42.4103 22.7093 42.4743 22.816C42.5383 22.9227 42.5489 23.0507 42.5063 23.2C42.4209 23.4773 42.2183 23.68 41.8983 23.808C41.5783 23.936 41.0769 24 40.3943 24H33.0983C32.5436 24 32.1489 23.9147 31.9142 23.744C31.6582 23.552 31.5622 23.3067 31.6262 23.008C31.7116 22.752 31.9356 22.528 32.2982 22.336C32.6182 22.1653 32.8849 21.9627 33.0983 21.728C33.3116 21.4933 33.4929 21.12 33.6423 20.608L36.4903 11.36C36.5329 11.2533 36.5543 11.104 36.5543 10.912C36.5543 10.6773 36.5009 10.496 36.3943 10.368C36.3089 10.24 36.1596 10.08 35.9463 9.888C35.7329 9.71733 35.5836 9.568 35.4983 9.44C35.4129 9.312 35.4023 9.14133 35.4663 8.928C35.5943 8.43733 36.2663 8.01067 37.4823 7.648C38.6983 7.264 39.9676 7.072 41.2903 7.072C42.3569 7.072 43.1996 7.37067 43.8183 7.968C44.4369 8.544 44.7143 9.35467 44.6503 10.4C45.5249 9.14133 46.4529 8.27733 47.4343 7.808C48.4156 7.31733 49.4823 7.072 50.6343 7.072C51.9356 7.072 52.9809 7.46667 53.7703 8.256C54.5809 9.04533 54.9863 10.0693 54.9863 11.328C54.9863 11.9893 54.8796 12.64 54.6663 13.28L52.7143 19.584ZM73.7005 19.392C73.6578 19.5627 73.6365 19.68 73.6365 19.744C73.6365 19.8933 73.6792 20.0107 73.7645 20.096C73.8498 20.1813 73.9565 20.224 74.0845 20.224C74.3405 20.224 74.5538 20.1173 74.7245 19.904C74.9165 19.6693 75.0445 19.552 75.1085 19.552C75.2152 19.552 75.3005 19.6267 75.3645 19.776C75.4285 19.9253 75.4605 20.096 75.4605 20.288C75.4818 20.864 75.2578 21.4507 74.7885 22.048C74.3405 22.6453 73.7325 23.136 72.9645 23.52C72.1965 23.904 71.3645 24.096 70.4685 24.096C69.4018 24.096 68.4738 23.8933 67.6845 23.488C66.8952 23.0827 66.3512 22.5493 66.0525 21.888C65.4765 22.6347 64.8152 23.1893 64.0685 23.552C63.3218 23.9147 62.5325 24.096 61.7005 24.096C60.7192 24.096 59.8018 23.8507 58.9485 23.36C58.1165 22.8693 57.4445 22.176 56.9325 21.28C56.4418 20.3627 56.1965 19.328 56.1965 18.176C56.1965 16.2347 56.5592 14.4107 57.2845 12.704C58.0312 10.976 59.0658 9.58933 60.3885 8.544C61.7112 7.47733 63.2152 6.944 64.9005 6.944C65.8178 6.944 66.5965 7.05067 67.2365 7.264C67.8978 7.47733 68.4952 7.79733 69.0285 8.224L70.1165 4.64C70.1805 4.448 70.2125 4.288 70.2125 4.16C70.2125 3.92533 70.1485 3.73333 70.0205 3.584C69.9138 3.43467 69.7645 3.28533 69.5725 3.136C69.3592 2.96533 69.1992 2.816 69.0925 2.688C69.0072 2.56 68.9965 2.38933 69.0605 2.176C69.1885 1.68533 69.8605 1.25867 71.0765 0.895998C72.2925 0.533332 73.5618 0.351999 74.8845 0.351999C76.1218 0.351999 77.0285 0.586666 77.6045 1.056C78.2018 1.52533 78.5005 2.16533 78.5005 2.976C78.5005 3.44533 78.4258 3.904 78.2765 4.352L73.7005 19.392ZM68.3565 10.4C68.0152 10.1013 67.6418 9.952 67.2365 9.952C66.6178 9.952 66.0098 10.4107 65.4125 11.328C64.8152 12.2453 64.3352 13.3547 63.9725 14.656C63.6098 15.9573 63.4392 17.1307 63.4605 18.176C63.4605 19.3493 63.8445 19.936 64.6125 19.936C64.8898 19.936 65.1245 19.8293 65.3165 19.616C65.5085 19.3813 65.6898 19.008 65.8605 18.496L68.3565 10.4ZM85.1973 7.072C86.4346 7.072 87.3413 7.30667 87.9173 7.776C88.4933 8.24533 88.7813 8.88533 88.7813 9.696C88.7813 10.1867 88.7066 10.656 88.5573 11.104L85.6133 20.672C85.5493 20.928 85.5173 21.152 85.5173 21.344C85.5173 21.6213 85.5706 21.8453 85.6773 22.016C85.7839 22.1653 85.9333 22.3147 86.1253 22.464C86.2746 22.6133 86.3813 22.7413 86.4453 22.848C86.5093 22.9333 86.5199 23.0507 86.4773 23.2C86.3706 23.4773 86.1573 23.68 85.8373 23.808C85.5173 23.936 85.0266 24 84.3653 24H77.0693C76.5146 24 76.1092 23.9147 75.8532 23.744C75.5972 23.552 75.5119 23.3067 75.5972 23.008C75.6826 22.752 75.9066 22.528 76.2692 22.336C76.5892 22.1653 76.8559 21.9627 77.0693 21.728C77.2826 21.4933 77.4639 21.12 77.6133 20.608L80.3973 11.36C80.4613 11.168 80.4933 11.008 80.4933 10.88C80.4933 10.6453 80.4399 10.464 80.3333 10.336C80.2266 10.1867 80.0666 10.0373 79.8533 9.888C79.6399 9.71733 79.4906 9.568 79.4053 9.44C79.3199 9.312 79.3093 9.14133 79.3733 8.928C79.5013 8.43733 80.1733 8.01067 81.3893 7.648C82.6053 7.264 83.8746 7.072 85.1973 7.072ZM87.3413 -1.90735e-06C88.1733 -1.90735e-06 88.8666 0.277332 89.4213 0.831999C89.9759 1.36533 90.2533 2.02666 90.2533 2.816C90.2533 3.37067 90.1039 3.91467 89.8053 4.448C89.5279 4.98133 89.1226 5.41867 88.5893 5.76C88.0773 6.08 87.5013 6.24 86.8613 6.24C86.0506 6.24 85.3679 5.97333 84.8133 5.44C84.2799 4.88533 84.0026 4.20267 83.9813 3.392C83.9813 2.85867 84.1199 2.336 84.3973 1.824C84.6746 1.29067 85.0693 0.853332 85.5813 0.511999C86.0933 0.170665 86.6799 -1.90735e-06 87.3413 -1.90735e-06ZM108.308 19.584C108.265 19.6693 108.244 19.7973 108.244 19.968C108.244 20.1173 108.276 20.2347 108.34 20.32C108.425 20.4053 108.532 20.448 108.66 20.448C108.916 20.448 109.129 20.3413 109.3 20.128C109.492 19.8933 109.62 19.776 109.684 19.776C109.791 19.776 109.876 19.8507 109.94 20C110.004 20.128 110.036 20.288 110.036 20.48C110.057 21.0987 109.855 21.7067 109.428 22.304C109.001 22.88 108.372 23.36 107.54 23.744C106.729 24.1067 105.748 24.288 104.596 24.288C103.188 24.288 102.068 23.968 101.236 23.328C100.404 22.6667 99.9773 21.792 99.956 20.704C99.956 19.9147 100.148 19.0293 100.532 18.048L102.292 13.44C102.399 13.1627 102.452 12.9387 102.452 12.768C102.452 12.4907 102.356 12.2773 102.164 12.128C101.993 11.9573 101.78 11.872 101.524 11.872C101.055 11.872 100.607 12.096 100.18 12.544C99.7533 12.9707 99.444 13.504 99.252 14.144L97.268 20.672C97.1827 20.9067 97.14 21.1307 97.14 21.344C97.14 21.6 97.1933 21.8133 97.3 21.984C97.4067 22.1333 97.556 22.2933 97.748 22.464C97.8973 22.592 98.004 22.7093 98.068 22.816C98.132 22.9227 98.1427 23.0507 98.1 23.2C98.0147 23.4773 97.812 23.68 97.492 23.808C97.172 23.936 96.6707 24 95.988 24H88.692C88.1373 24 87.7427 23.9147 87.508 23.744C87.252 23.552 87.156 23.3067 87.22 23.008C87.3053 22.752 87.5293 22.528 87.892 22.336C88.212 22.1653 88.4787 21.9627 88.692 21.728C88.9053 21.4933 89.0867 21.12 89.236 20.608L92.084 11.36C92.1267 11.2533 92.148 11.104 92.148 10.912C92.148 10.6773 92.0947 10.496 91.988 10.368C91.9027 10.24 91.7533 10.08 91.54 9.888C91.3267 9.71733 91.1773 9.568 91.092 9.44C91.0067 9.312 90.996 9.14133 91.06 8.928C91.188 8.43733 91.86 8.01067 93.076 7.648C94.292 7.264 95.5613 7.072 96.884 7.072C97.9507 7.072 98.7933 7.37067 99.412 7.968C100.031 8.544 100.308 9.35467 100.244 10.4C101.119 9.14133 102.047 8.27733 103.028 7.808C104.009 7.31733 105.076 7.072 106.228 7.072C107.529 7.072 108.575 7.46667 109.364 8.256C110.175 9.04533 110.58 10.0693 110.58 11.328C110.58 11.9893 110.473 12.64 110.26 13.28L108.308 19.584ZM119.822 7.072C121.06 7.072 121.966 7.30667 122.542 7.776C123.118 8.24533 123.406 8.88533 123.406 9.696C123.406 10.1867 123.332 10.656 123.182 11.104L120.238 20.672C120.174 20.928 120.142 21.152 120.142 21.344C120.142 21.6213 120.196 21.8453 120.302 22.016C120.409 22.1653 120.558 22.3147 120.75 22.464C120.9 22.6133 121.006 22.7413 121.07 22.848C121.134 22.9333 121.145 23.0507 121.102 23.2C120.996 23.4773 120.782 23.68 120.462 23.808C120.142 23.936 119.652 24 118.99 24H111.694C111.14 24 110.734 23.9147 110.478 23.744C110.222 23.552 110.137 23.3067 110.222 23.008C110.308 22.752 110.532 22.528 110.894 22.336C111.214 22.1653 111.481 21.9627 111.694 21.728C111.908 21.4933 112.089 21.12 112.238 20.608L115.022 11.36C115.086 11.168 115.118 11.008 115.118 10.88C115.118 10.6453 115.065 10.464 114.958 10.336C114.852 10.1867 114.692 10.0373 114.478 9.888C114.265 9.71733 114.116 9.568 114.03 9.44C113.945 9.312 113.934 9.14133 113.998 8.928C114.126 8.43733 114.798 8.01067 116.014 7.648C117.23 7.264 118.5 7.072 119.822 7.072ZM121.966 -1.90735e-06C122.798 -1.90735e-06 123.492 0.277332 124.046 0.831999C124.601 1.36533 124.878 2.02666 124.878 2.816C124.878 3.37067 124.729 3.91467 124.43 4.448C124.153 4.98133 123.748 5.41867 123.214 5.76C122.702 6.08 122.126 6.24 121.486 6.24C120.676 6.24 119.993 5.97333 119.438 5.44C118.905 4.88533 118.628 4.20267 118.606 3.392C118.606 2.85867 118.745 2.336 119.022 1.824C119.3 1.29067 119.694 0.853332 120.206 0.511999C120.718 0.170665 121.305 -1.90735e-06 121.966 -1.90735e-06ZM142.933 19.584C142.89 19.6693 142.869 19.7973 142.869 19.968C142.869 20.1173 142.901 20.2347 142.965 20.32C143.05 20.4053 143.157 20.448 143.285 20.448C143.541 20.448 143.754 20.3413 143.925 20.128C144.117 19.8933 144.245 19.776 144.309 19.776C144.416 19.776 144.501 19.8507 144.565 20C144.629 20.128 144.661 20.288 144.661 20.48C144.682 21.0987 144.48 21.7067 144.053 22.304C143.626 22.88 142.997 23.36 142.165 23.744C141.354 24.1067 140.373 24.288 139.221 24.288C137.813 24.288 136.693 23.968 135.861 23.328C135.029 22.6667 134.602 21.792 134.581 20.704C134.581 19.9147 134.773 19.0293 135.157 18.048L136.917 13.44C137.024 13.1627 137.077 12.9387 137.077 12.768C137.077 12.4907 136.981 12.2773 136.789 12.128C136.618 11.9573 136.405 11.872 136.149 11.872C135.68 11.872 135.232 12.096 134.805 12.544C134.378 12.9707 134.069 13.504 133.877 14.144L131.893 20.672C131.808 20.9067 131.765 21.1307 131.765 21.344C131.765 21.6 131.818 21.8133 131.925 21.984C132.032 22.1333 132.181 22.2933 132.373 22.464C132.522 22.592 132.629 22.7093 132.693 22.816C132.757 22.9227 132.768 23.0507 132.725 23.2C132.64 23.4773 132.437 23.68 132.117 23.808C131.797 23.936 131.296 24 130.613 24H123.317C122.762 24 122.368 23.9147 122.133 23.744C121.877 23.552 121.781 23.3067 121.845 23.008C121.93 22.752 122.154 22.528 122.517 22.336C122.837 22.1653 123.104 21.9627 123.317 21.728C123.53 21.4933 123.712 21.12 123.861 20.608L126.709 11.36C126.752 11.2533 126.773 11.104 126.773 10.912C126.773 10.6773 126.72 10.496 126.613 10.368C126.528 10.24 126.378 10.08 126.165 9.888C125.952 9.71733 125.802 9.568 125.717 9.44C125.632 9.312 125.621 9.14133 125.685 8.928C125.813 8.43733 126.485 8.01067 127.701 7.648C128.917 7.264 130.186 7.072 131.509 7.072C132.576 7.072 133.418 7.37067 134.037 7.968C134.656 8.544 134.933 9.35467 134.869 10.4C135.744 9.14133 136.672 8.27733 137.653 7.808C138.634 7.31733 139.701 7.072 140.853 7.072C142.154 7.072 143.2 7.46667 143.989 8.256C144.8 9.04533 145.205 10.0693 145.205 11.328C145.205 11.9893 145.098 12.64 144.885 13.28L142.933 19.584ZM165.423 1.856C166.106 1.856 166.767 2.00533 167.407 2.304C168.069 2.58133 168.602 2.976 169.007 3.488C169.434 3.97867 169.647 4.512 169.647 5.088C169.647 6.34667 168.794 6.976 167.087 6.976C166.597 6.976 166.213 6.944 165.935 6.88C165.679 6.79467 165.37 6.66667 165.007 6.496C164.943 6.64533 164.911 6.85867 164.911 7.136C164.911 7.47733 164.965 7.88267 165.071 8.352C165.199 8.82133 165.349 9.25867 165.519 9.664C165.967 10.3253 166.191 11.1147 166.191 12.032C166.191 12.4373 166.138 12.928 166.031 13.504C165.775 14.6133 165.21 15.6267 164.335 16.544C163.482 17.4613 162.373 18.1867 161.007 18.72C159.663 19.232 158.181 19.488 156.559 19.488C155.322 19.488 154.159 19.4027 153.071 19.232C152.751 19.5093 152.591 19.8507 152.591 20.256C152.591 20.5333 152.719 20.768 152.975 20.96C153.231 21.1307 153.658 21.216 154.255 21.216H159.055C160.698 21.216 161.978 21.504 162.895 22.08C163.813 22.6347 164.271 23.4347 164.271 24.48C164.271 24.864 164.207 25.2587 164.079 25.664C163.823 26.496 163.237 27.264 162.319 27.968C161.423 28.6933 160.154 29.28 158.511 29.728C156.869 30.176 154.874 30.4 152.527 30.4C150.437 30.4 148.666 30.2187 147.215 29.856C145.765 29.4933 144.687 28.992 143.983 28.352C143.258 27.7333 142.895 27.04 142.895 26.272C142.895 26.1013 142.938 25.8453 143.023 25.504C143.215 24.8853 143.653 24.384 144.335 24C144.997 23.5947 146.095 23.328 147.631 23.2C147.119 22.7093 146.863 22.1227 146.863 21.44C146.863 21.2053 146.895 20.96 146.959 20.704C147.301 19.5947 148.303 18.7733 149.967 18.24C148.367 17.3653 147.567 16.0853 147.567 14.4C147.567 13.9307 147.631 13.44 147.759 12.928C148.015 11.8187 148.581 10.816 149.455 9.92C150.33 9.00267 151.45 8.27733 152.815 7.744C154.181 7.21067 155.674 6.944 157.295 6.944C159.834 6.944 161.829 7.27467 163.279 7.936C162.959 7.44533 162.703 6.92267 162.511 6.368C162.341 5.792 162.255 5.26933 162.255 4.8C162.255 3.98933 162.511 3.296 163.023 2.72C163.557 2.144 164.357 1.856 165.423 1.856ZM158.479 13.216C158.821 12.128 158.991 11.296 158.991 10.72C158.991 9.99467 158.682 9.632 158.063 9.632C157.53 9.632 157.061 9.89867 156.655 10.432C156.271 10.944 155.877 11.872 155.471 13.216C155.13 14.3253 154.959 15.168 154.959 15.744C154.959 16.448 155.258 16.8 155.855 16.8C156.389 16.8 156.858 16.5333 157.263 16C157.669 15.4667 158.074 14.5387 158.479 13.216ZM152.111 24.448C151.514 24.448 150.97 24.416 150.479 24.352C150.223 24.672 150.095 25.0987 150.095 25.632C150.117 26.1653 150.33 26.5493 150.735 26.784C151.162 27.0187 151.813 27.136 152.687 27.136C153.754 27.136 154.618 26.976 155.279 26.656C155.962 26.336 156.303 25.8773 156.303 25.28C156.303 25.024 156.207 24.8213 156.015 24.672C155.823 24.5227 155.546 24.448 155.183 24.448H152.111Z" fill="#F07C14"/>
</svg>
