<svg width="245" height="23" viewBox="0 0 245 23" fill="none" xmlns="http://www.w3.org/2000/svg">
<path d="M27.2333 4.32C27.2333 4.896 27.0973 5.4 26.8253 5.832C26.5533 6.248 26.2093 6.568 25.7933 6.792C25.3933 7 25.0013 7.104 24.6173 7.104C24.2493 7.104 23.8973 7.016 23.5613 6.84C23.2413 6.648 23.0333 6.432 22.9373 6.192L17.1053 15.936C16.6573 16.688 16.2493 17.224 15.8813 17.544C15.5293 17.848 15.1213 18 14.6573 18C13.5853 18 12.9773 17.312 12.8333 15.936L12.0653 8.88L7.21728 15.936C6.65728 16.752 6.20128 17.304 5.84928 17.592C5.51328 17.864 5.12128 18 4.67328 18C3.69728 18 3.10528 17.232 2.89728 15.696L1.36128 4.848C1.31328 4.528 1.21728 4.272 1.07328 4.08C0.945281 3.888 0.777281 3.704 0.569281 3.528C0.425281 3.4 0.321281 3.296 0.257282 3.216C0.193281 3.12 0.161281 3.016 0.161281 2.904C0.0812814 2.312 0.433281 2.016 1.21728 2.016H7.19328C7.56128 2.016 7.83328 2.096 8.00928 2.256C8.20128 2.4 8.28928 2.6 8.27328 2.856C8.27328 2.984 8.23328 3.112 8.15328 3.24C8.08928 3.352 8.01728 3.456 7.93728 3.552C7.76128 3.744 7.63328 3.928 7.55328 4.104C7.47328 4.28 7.44928 4.512 7.48128 4.8L8.10528 10.584L11.7053 5.424L11.6333 4.848C11.6013 4.544 11.5213 4.296 11.3933 4.104C11.2653 3.912 11.0893 3.728 10.8653 3.552C10.7053 3.408 10.5933 3.296 10.5293 3.216C10.4653 3.12 10.4333 3.016 10.4333 2.904C10.3533 2.312 10.7053 2.016 11.4893 2.016H17.4893C17.8573 2.016 18.1373 2.096 18.3293 2.256C18.5213 2.4 18.6093 2.6 18.5933 2.856C18.5933 3.064 18.4813 3.296 18.2573 3.552C18.0973 3.744 17.9773 3.928 17.8973 4.104C17.8173 4.28 17.7853 4.512 17.8013 4.8L18.0893 10.032L21.3293 4.368C21.8573 3.456 22.3693 2.824 22.8653 2.472C23.3613 2.104 24.0093 1.92 24.8093 1.92C25.5293 1.92 26.1133 2.136 26.5613 2.568C27.0093 3 27.2333 3.584 27.2333 4.32ZM39.2706 14.688C39.2386 14.752 39.2226 14.848 39.2226 14.976C39.2226 15.088 39.2466 15.176 39.2946 15.24C39.3586 15.304 39.4386 15.336 39.5346 15.336C39.7266 15.336 39.8866 15.256 40.0146 15.096C40.1586 14.92 40.2546 14.832 40.3026 14.832C40.3826 14.832 40.4466 14.888 40.4946 15C40.5426 15.096 40.5666 15.216 40.5666 15.36C40.5826 15.824 40.4306 16.28 40.1106 16.728C39.7906 17.16 39.3186 17.52 38.6946 17.808C38.0866 18.08 37.3506 18.216 36.4866 18.216C35.4306 18.216 34.5906 17.976 33.9666 17.496C33.3426 17 33.0226 16.344 33.0066 15.528C33.0066 14.936 33.1506 14.272 33.4386 13.536L34.7586 10.08C34.8386 9.872 34.8786 9.704 34.8786 9.576C34.8786 9.368 34.8066 9.208 34.6626 9.096C34.5346 8.968 34.3746 8.904 34.1826 8.904C33.8786 8.904 33.5666 9.048 33.2466 9.336C32.9426 9.608 32.6946 10.056 32.5026 10.68V10.632L30.9906 15.504C30.9426 15.696 30.9186 15.864 30.9186 16.008C30.9186 16.216 30.9586 16.384 31.0386 16.512C31.1186 16.624 31.2306 16.736 31.3746 16.848C31.4866 16.96 31.5666 17.056 31.6146 17.136C31.6626 17.2 31.6706 17.288 31.6386 17.4C31.5586 17.608 31.3986 17.76 31.1586 17.856C30.9186 17.952 30.5506 18 30.0546 18H24.5826C24.1666 18 23.8626 17.936 23.6706 17.808C23.4786 17.664 23.4146 17.48 23.4786 17.256C23.5426 17.064 23.7106 16.896 23.9826 16.752C24.2226 16.624 24.4226 16.472 24.5826 16.296C24.7426 16.12 24.8786 15.84 24.9906 15.456L28.6386 3.48C28.6866 3.336 28.7106 3.216 28.7106 3.12C28.7106 2.944 28.6626 2.8 28.5666 2.688C28.4866 2.576 28.3746 2.464 28.2306 2.352C28.0706 2.224 27.9506 2.112 27.8706 2.016C27.8066 1.92 27.7986 1.792 27.8466 1.632C27.9426 1.264 28.4466 0.943999 29.3586 0.671999C30.2706 0.399999 31.2226 0.263999 32.2146 0.263999C33.1426 0.263999 33.8226 0.44 34.2546 0.792C34.7026 1.144 34.9266 1.624 34.9266 2.232C34.9266 2.584 34.8706 2.928 34.7586 3.264L33.4626 7.488C34.0866 6.672 34.7426 6.104 35.4306 5.784C36.1346 5.464 36.8946 5.304 37.7106 5.304C38.6866 5.304 39.4706 5.6 40.0626 6.192C40.6706 6.784 40.9746 7.552 40.9746 8.496C40.9746 8.992 40.8946 9.48 40.7346 9.96L39.2706 14.688ZM50.1657 5.304C52.0057 5.304 53.4777 5.648 54.5817 6.336C55.6857 7.008 56.2377 8.04 56.2377 9.432C56.2377 9.96 56.1417 10.56 55.9497 11.232L54.9657 14.544C54.9497 14.608 54.9417 14.688 54.9417 14.784C54.9417 15.04 55.0457 15.168 55.2537 15.168C55.4457 15.168 55.6057 15.088 55.7337 14.928C55.8777 14.752 55.9737 14.664 56.0217 14.664C56.1017 14.664 56.1657 14.72 56.2137 14.832C56.2777 14.944 56.3097 15.072 56.3097 15.216C56.3257 15.648 56.1577 16.088 55.8057 16.536C55.4697 16.984 55.0137 17.352 54.4377 17.64C53.8617 17.928 53.2297 18.072 52.5417 18.072C51.7097 18.072 50.9977 17.92 50.4057 17.616C49.8137 17.312 49.4057 16.864 49.1817 16.272C48.7017 16.848 48.1337 17.296 47.4777 17.616C46.8217 17.92 46.1177 18.072 45.3657 18.072C44.5177 18.072 43.8057 17.912 43.2297 17.592C42.6537 17.256 42.2217 16.832 41.9337 16.32C41.6617 15.792 41.5257 15.24 41.5257 14.664C41.5257 14.408 41.5497 14.16 41.5977 13.92C41.8537 12.816 42.4057 11.984 43.2537 11.424C44.1177 10.864 45.1417 10.584 46.3257 10.584C47.6537 10.584 48.9577 10.792 50.2377 11.208L50.8377 9.624C51.0457 8.952 51.1497 8.432 51.1497 8.064C51.1337 7.68 51.0057 7.392 50.7657 7.2C50.5257 7.008 50.1577 6.912 49.6617 6.912C49.7577 7.168 49.8057 7.432 49.8057 7.704C49.8057 8.296 49.5817 8.808 49.1337 9.24C48.6857 9.672 48.0457 9.888 47.2137 9.888C46.4297 9.888 45.8137 9.72 45.3657 9.384C44.9337 9.032 44.7177 8.6 44.7177 8.088C44.7177 7.288 45.1657 6.624 46.0617 6.096C46.9577 5.568 48.3257 5.304 50.1657 5.304ZM48.8217 12.576C48.3737 12.576 48.0057 12.752 47.7177 13.104C47.4457 13.44 47.3097 13.808 47.3097 14.208C47.3097 14.464 47.3657 14.672 47.4777 14.832C47.6057 14.992 47.7817 15.072 48.0057 15.072C48.2137 15.072 48.4377 14.992 48.6777 14.832C48.9337 14.656 49.1177 14.4 49.2297 14.064L49.7337 12.648C49.4617 12.6 49.1577 12.576 48.8217 12.576ZM68.0288 5.616C68.3328 5.616 68.5648 5.68 68.7248 5.808C68.9008 5.936 68.9888 6.112 68.9888 6.336C68.9888 6.4 68.9728 6.512 68.9408 6.672C68.7328 7.376 68.2528 7.728 67.5008 7.728H66.1088L64.3088 13.656C64.2288 13.896 64.1888 14.144 64.1888 14.4C64.1888 14.688 64.2688 14.888 64.4288 15C64.5888 15.112 64.8128 15.168 65.1008 15.168C65.3568 15.168 65.6768 15.136 66.0608 15.072C66.2528 15.024 66.4208 15 66.5648 15C66.6768 15 66.7568 15.04 66.8048 15.12C66.8688 15.184 66.9008 15.272 66.9008 15.384C66.9168 15.704 66.6768 16.096 66.1808 16.56C65.7008 17.008 65.0448 17.4 64.2128 17.736C63.3808 18.056 62.4608 18.216 61.4528 18.216C60.3648 18.216 59.4928 17.968 58.8368 17.472C58.1808 16.976 57.8528 16.296 57.8528 15.432C57.8528 15.032 57.9168 14.648 58.0448 14.28L59.5808 9.528C59.6608 9.256 59.7008 9.04 59.7008 8.88C59.7008 8.56 59.6208 8.288 59.4608 8.064C59.3168 7.84 59.1088 7.608 58.8368 7.368C58.5968 7.144 58.4288 6.96 58.3328 6.816C58.2368 6.656 58.2128 6.472 58.2608 6.264C58.3248 6.056 58.4608 5.896 58.6688 5.784C58.8768 5.672 59.2048 5.616 59.6528 5.616H60.9968L62.5088 4.104C63.0368 3.576 63.5168 3.208 63.9488 3C64.3968 2.792 64.9728 2.688 65.6768 2.688C66.6848 2.688 67.1888 3.072 67.1888 3.84C67.1888 4.08 67.1568 4.304 67.0928 4.512L66.7568 5.616H68.0288ZM78.73 5.304C79.658 5.304 80.338 5.48 80.77 5.832C81.202 6.184 81.418 6.664 81.418 7.272C81.418 7.64 81.362 7.992 81.25 8.328L79.042 15.504C78.994 15.696 78.97 15.864 78.97 16.008C78.97 16.216 79.01 16.384 79.09 16.512C79.17 16.624 79.282 16.736 79.426 16.848C79.538 16.96 79.618 17.056 79.666 17.136C79.714 17.2 79.722 17.288 79.69 17.4C79.61 17.608 79.45 17.76 79.21 17.856C78.97 17.952 78.602 18 78.106 18H72.634C72.218 18 71.914 17.936 71.722 17.808C71.53 17.664 71.466 17.48 71.53 17.256C71.594 17.064 71.762 16.896 72.034 16.752C72.274 16.624 72.474 16.472 72.634 16.296C72.794 16.12 72.93 15.84 73.042 15.456L75.13 8.52C75.178 8.376 75.202 8.256 75.202 8.16C75.202 7.984 75.162 7.848 75.082 7.752C75.002 7.64 74.882 7.528 74.722 7.416C74.562 7.288 74.45 7.176 74.386 7.08C74.322 6.984 74.314 6.856 74.362 6.696C74.458 6.328 74.962 6.008 75.874 5.736C76.786 5.448 77.738 5.304 78.73 5.304ZM80.338 -1.43051e-06C80.962 -1.43051e-06 81.482 0.207999 81.898 0.623999C82.314 1.024 82.522 1.52 82.522 2.112C82.522 2.528 82.41 2.936 82.186 3.336C81.978 3.736 81.674 4.064 81.274 4.32C80.89 4.56 80.458 4.68 79.978 4.68C79.37 4.68 78.858 4.48 78.442 4.08C78.042 3.664 77.834 3.152 77.818 2.544C77.818 2.144 77.922 1.752 78.13 1.368C78.338 0.967999 78.634 0.639999 79.018 0.383999C79.402 0.127999 79.842 -1.43051e-06 80.338 -1.43051e-06ZM89.103 5.088C90.431 5.088 91.575 5.208 92.535 5.448C93.511 5.688 94.255 6.024 94.767 6.456C95.295 6.888 95.559 7.376 95.559 7.92C95.559 8.48 95.335 8.936 94.887 9.288C94.455 9.64 93.847 9.816 93.063 9.816C92.263 9.816 91.583 9.616 91.023 9.216C90.479 8.816 90.207 8.312 90.207 7.704C90.207 7.496 90.239 7.296 90.303 7.104C90.015 7.024 89.759 6.984 89.535 6.984C89.135 6.984 88.799 7.08 88.527 7.272C88.271 7.464 88.151 7.736 88.167 8.088C88.167 8.504 88.375 8.856 88.791 9.144C89.207 9.432 89.879 9.792 90.807 10.224C91.607 10.576 92.263 10.904 92.775 11.208C93.303 11.496 93.743 11.864 94.095 12.312C94.463 12.76 94.647 13.288 94.647 13.896C94.647 14.024 94.615 14.264 94.551 14.616C94.295 15.688 93.583 16.536 92.415 17.16C91.247 17.784 89.711 18.096 87.807 18.096C85.663 18.096 83.959 17.808 82.695 17.232C81.447 16.656 80.823 15.864 80.823 14.856C80.823 14.168 81.031 13.648 81.447 13.296C81.863 12.944 82.415 12.768 83.103 12.768C83.903 12.768 84.583 13.016 85.143 13.512C85.719 14.008 86.007 14.64 86.007 15.408C86.007 15.616 85.983 15.832 85.935 16.056C86.319 16.152 86.687 16.2 87.039 16.2C87.455 16.2 87.799 16.088 88.071 15.864C88.343 15.64 88.479 15.328 88.479 14.928C88.463 14.56 88.279 14.248 87.927 13.992C87.575 13.72 87.015 13.4 86.247 13.032C85.527 12.696 84.935 12.384 84.471 12.096C84.007 11.792 83.607 11.416 83.271 10.968C82.951 10.52 82.791 9.992 82.791 9.384C82.791 8.072 83.335 7.032 84.423 6.264C85.527 5.48 87.087 5.088 89.103 5.088ZM115.886 2.016C116.478 2.016 116.934 2.144 117.254 2.4C117.59 2.656 117.758 3.008 117.758 3.456C117.758 3.68 117.726 3.896 117.662 4.104L117.038 6.336C116.926 6.752 116.742 7.048 116.486 7.224C116.23 7.4 115.894 7.488 115.478 7.488C115.078 7.488 114.758 7.408 114.518 7.248C114.278 7.072 114.102 6.792 113.99 6.408L113.606 5.04C113.542 4.8 113.462 4.64 113.366 4.56C113.27 4.48 113.07 4.44 112.766 4.44H110.366L109.022 9.192H109.478C109.702 9.192 109.894 9.16 110.054 9.096C110.23 9.032 110.414 8.912 110.606 8.736L111.35 8.112C111.622 7.872 111.862 7.704 112.07 7.608C112.294 7.496 112.526 7.44 112.766 7.44C113.07 7.44 113.318 7.528 113.51 7.704C113.718 7.88 113.822 8.128 113.822 8.448C113.822 8.576 113.798 8.728 113.75 8.904L112.694 12.552C112.454 13.336 112.022 13.728 111.398 13.728C110.886 13.728 110.486 13.464 110.198 12.936L109.766 12.12C109.654 11.896 109.55 11.752 109.454 11.688C109.358 11.624 109.214 11.592 109.022 11.592H108.326L107.318 15.168C107.286 15.264 107.27 15.392 107.27 15.552C107.27 15.776 107.318 15.96 107.414 16.104C107.526 16.248 107.686 16.4 107.894 16.56C108.07 16.704 108.19 16.824 108.254 16.92C108.318 17 108.35 17.104 108.35 17.232C108.35 17.52 108.222 17.72 107.966 17.832C107.71 17.944 107.334 18 106.838 18H100.814C100.398 18 100.086 17.928 99.8783 17.784C99.6703 17.624 99.5983 17.408 99.6623 17.136C99.6943 16.992 99.7583 16.88 99.8543 16.8C99.9343 16.704 100.062 16.6 100.238 16.488C100.51 16.328 100.726 16.16 100.886 15.984C101.046 15.808 101.174 15.536 101.27 15.168L104.222 4.824C104.286 4.616 104.318 4.424 104.318 4.248C104.318 4.056 104.286 3.896 104.222 3.768C104.174 3.64 104.094 3.504 103.982 3.36C103.838 3.152 103.766 2.984 103.766 2.856C103.766 2.808 103.782 2.72 103.814 2.592C103.878 2.384 104.022 2.24 104.246 2.16C104.47 2.064 104.798 2.016 105.23 2.016H115.886ZM121.691 5.304C122.619 5.304 123.299 5.48 123.731 5.832C124.163 6.184 124.379 6.664 124.379 7.272C124.379 7.64 124.323 7.992 124.211 8.328L122.003 15.504C121.955 15.696 121.931 15.864 121.931 16.008C121.931 16.216 121.971 16.384 122.051 16.512C122.131 16.624 122.243 16.736 122.387 16.848C122.499 16.96 122.579 17.056 122.627 17.136C122.675 17.2 122.683 17.288 122.651 17.4C122.571 17.608 122.411 17.76 122.171 17.856C121.931 17.952 121.563 18 121.067 18H115.595C115.179 18 114.875 17.936 114.683 17.808C114.491 17.664 114.427 17.48 114.491 17.256C114.555 17.064 114.723 16.896 114.995 16.752C115.235 16.624 115.435 16.472 115.595 16.296C115.755 16.12 115.891 15.84 116.003 15.456L118.091 8.52C118.139 8.376 118.163 8.256 118.163 8.16C118.163 7.984 118.123 7.848 118.043 7.752C117.963 7.64 117.843 7.528 117.683 7.416C117.523 7.288 117.411 7.176 117.347 7.08C117.283 6.984 117.275 6.856 117.323 6.696C117.419 6.328 117.923 6.008 118.835 5.736C119.747 5.448 120.699 5.304 121.691 5.304ZM123.299 -1.43051e-06C123.923 -1.43051e-06 124.443 0.207999 124.859 0.623999C125.275 1.024 125.483 1.52 125.483 2.112C125.483 2.528 125.371 2.936 125.147 3.336C124.939 3.736 124.635 4.064 124.235 4.32C123.851 4.56 123.419 4.68 122.939 4.68C122.331 4.68 121.819 4.48 121.403 4.08C121.003 3.664 120.795 3.152 120.779 2.544C120.779 2.144 120.883 1.752 121.091 1.368C121.299 0.967999 121.595 0.639999 121.979 0.383999C122.363 0.127999 122.803 -1.43051e-06 123.299 -1.43051e-06ZM139.024 14.688C138.992 14.752 138.976 14.848 138.976 14.976C138.976 15.088 139 15.176 139.048 15.24C139.112 15.304 139.192 15.336 139.288 15.336C139.48 15.336 139.64 15.256 139.768 15.096C139.912 14.92 140.008 14.832 140.056 14.832C140.136 14.832 140.2 14.888 140.248 15C140.296 15.096 140.32 15.216 140.32 15.36C140.336 15.824 140.184 16.28 139.864 16.728C139.544 17.16 139.072 17.52 138.448 17.808C137.84 18.08 137.104 18.216 136.24 18.216C135.184 18.216 134.344 17.976 133.72 17.496C133.096 17 132.776 16.344 132.76 15.528C132.76 14.936 132.904 14.272 133.192 13.536L134.512 10.08C134.592 9.872 134.632 9.704 134.632 9.576C134.632 9.368 134.56 9.208 134.416 9.096C134.288 8.968 134.128 8.904 133.936 8.904C133.584 8.904 133.248 9.072 132.928 9.408C132.608 9.728 132.376 10.128 132.232 10.608L130.744 15.504C130.68 15.68 130.648 15.848 130.648 16.008C130.648 16.2 130.688 16.36 130.768 16.488C130.848 16.6 130.96 16.72 131.104 16.848C131.216 16.944 131.296 17.032 131.344 17.112C131.392 17.192 131.4 17.288 131.368 17.4C131.304 17.608 131.152 17.76 130.912 17.856C130.672 17.952 130.296 18 129.784 18H124.312C123.896 18 123.6 17.936 123.424 17.808C123.232 17.664 123.16 17.48 123.208 17.256C123.272 17.064 123.44 16.896 123.712 16.752C123.952 16.624 124.152 16.472 124.312 16.296C124.472 16.12 124.608 15.84 124.72 15.456L126.856 8.52C126.888 8.44 126.904 8.328 126.904 8.184C126.904 8.008 126.864 7.872 126.784 7.776C126.72 7.68 126.608 7.56 126.448 7.416C126.288 7.288 126.176 7.176 126.112 7.08C126.048 6.984 126.04 6.856 126.088 6.696C126.184 6.328 126.688 6.008 127.6 5.736C128.512 5.448 129.464 5.304 130.456 5.304C131.256 5.304 131.888 5.528 132.352 5.976C132.816 6.408 133.024 7.016 132.976 7.8C133.632 6.856 134.328 6.208 135.064 5.856C135.8 5.488 136.6 5.304 137.464 5.304C138.44 5.304 139.224 5.6 139.816 6.192C140.424 6.784 140.728 7.552 140.728 8.496C140.728 8.992 140.648 9.48 140.488 9.96L139.024 14.688ZM152.844 2.016C155.244 2.016 157.052 2.48 158.268 3.408C159.484 4.32 160.092 5.664 160.092 7.44C160.092 8.32 159.932 9.336 159.612 10.488C159.084 12.344 158.372 13.816 157.476 14.904C156.58 15.992 155.396 16.784 153.924 17.28C152.468 17.776 150.596 18.016 148.308 18L141.78 17.976C141.444 17.976 141.188 17.92 141.012 17.808C140.82 17.696 140.724 17.544 140.724 17.352C140.724 17.256 140.748 17.152 140.796 17.04C140.844 16.896 140.916 16.792 141.012 16.728C141.092 16.664 141.22 16.576 141.396 16.464C141.652 16.32 141.852 16.16 141.996 15.984C142.156 15.808 142.292 15.528 142.404 15.144L145.332 4.824C145.396 4.616 145.428 4.416 145.428 4.224C145.428 4.048 145.396 3.904 145.332 3.792C145.284 3.664 145.212 3.52 145.116 3.36C144.972 3.152 144.9 2.984 144.9 2.856C144.9 2.808 144.916 2.72 144.948 2.592C145.012 2.384 145.148 2.24 145.356 2.16C145.58 2.064 145.916 2.016 146.364 2.016H152.844ZM153.468 9.96C153.884 8.456 154.092 7.272 154.092 6.408C154.092 5.56 153.916 4.976 153.564 4.656C153.212 4.336 152.708 4.176 152.052 4.176H151.524L148.284 15.84H148.86C149.596 15.84 150.212 15.688 150.708 15.384C151.22 15.064 151.692 14.488 152.124 13.656C152.556 12.808 153.004 11.576 153.468 9.96ZM166.199 5.304C167.127 5.304 167.807 5.48 168.239 5.832C168.671 6.184 168.887 6.664 168.887 7.272C168.887 7.64 168.831 7.992 168.719 8.328L166.511 15.504C166.463 15.696 166.439 15.864 166.439 16.008C166.439 16.216 166.479 16.384 166.559 16.512C166.639 16.624 166.751 16.736 166.895 16.848C167.007 16.96 167.087 17.056 167.135 17.136C167.183 17.2 167.191 17.288 167.159 17.4C167.079 17.608 166.919 17.76 166.679 17.856C166.439 17.952 166.071 18 165.575 18H160.103C159.687 18 159.383 17.936 159.191 17.808C158.999 17.664 158.935 17.48 158.999 17.256C159.063 17.064 159.231 16.896 159.503 16.752C159.743 16.624 159.943 16.472 160.103 16.296C160.263 16.12 160.399 15.84 160.511 15.456L162.599 8.52C162.647 8.376 162.671 8.256 162.671 8.16C162.671 7.984 162.631 7.848 162.551 7.752C162.471 7.64 162.351 7.528 162.191 7.416C162.031 7.288 161.919 7.176 161.855 7.08C161.791 6.984 161.783 6.856 161.831 6.696C161.927 6.328 162.431 6.008 163.343 5.736C164.255 5.448 165.207 5.304 166.199 5.304ZM167.807 -1.43051e-06C168.431 -1.43051e-06 168.951 0.207999 169.367 0.623999C169.783 1.024 169.991 1.52 169.991 2.112C169.991 2.528 169.879 2.936 169.655 3.336C169.447 3.736 169.143 4.064 168.743 4.32C168.359 4.56 167.927 4.68 167.447 4.68C166.839 4.68 166.327 4.48 165.911 4.08C165.511 3.664 165.303 3.152 165.287 2.544C165.287 2.144 165.391 1.752 165.599 1.368C165.807 0.967999 166.103 0.639999 166.487 0.383999C166.871 0.127999 167.311 -1.43051e-06 167.807 -1.43051e-06ZM183.532 14.688C183.5 14.752 183.484 14.848 183.484 14.976C183.484 15.088 183.508 15.176 183.556 15.24C183.62 15.304 183.7 15.336 183.796 15.336C183.988 15.336 184.148 15.256 184.276 15.096C184.42 14.92 184.516 14.832 184.564 14.832C184.644 14.832 184.708 14.888 184.756 15C184.804 15.096 184.828 15.216 184.828 15.36C184.844 15.824 184.692 16.28 184.372 16.728C184.052 17.16 183.58 17.52 182.956 17.808C182.348 18.08 181.612 18.216 180.748 18.216C179.692 18.216 178.852 17.976 178.228 17.496C177.604 17 177.284 16.344 177.268 15.528C177.268 14.936 177.412 14.272 177.7 13.536L179.02 10.08C179.1 9.872 179.14 9.704 179.14 9.576C179.14 9.368 179.068 9.208 178.924 9.096C178.796 8.968 178.636 8.904 178.444 8.904C178.092 8.904 177.756 9.072 177.436 9.408C177.116 9.728 176.884 10.128 176.74 10.608L175.252 15.504C175.188 15.68 175.156 15.848 175.156 16.008C175.156 16.2 175.196 16.36 175.276 16.488C175.356 16.6 175.468 16.72 175.612 16.848C175.724 16.944 175.804 17.032 175.852 17.112C175.9 17.192 175.908 17.288 175.876 17.4C175.812 17.608 175.66 17.76 175.42 17.856C175.18 17.952 174.804 18 174.292 18H168.82C168.404 18 168.108 17.936 167.932 17.808C167.74 17.664 167.668 17.48 167.716 17.256C167.78 17.064 167.948 16.896 168.22 16.752C168.46 16.624 168.66 16.472 168.82 16.296C168.98 16.12 169.116 15.84 169.228 15.456L171.364 8.52C171.396 8.44 171.412 8.328 171.412 8.184C171.412 8.008 171.372 7.872 171.292 7.776C171.228 7.68 171.116 7.56 170.956 7.416C170.796 7.288 170.684 7.176 170.62 7.08C170.556 6.984 170.548 6.856 170.596 6.696C170.692 6.328 171.196 6.008 172.108 5.736C173.02 5.448 173.972 5.304 174.964 5.304C175.764 5.304 176.396 5.528 176.86 5.976C177.324 6.408 177.532 7.016 177.484 7.8C178.14 6.856 178.836 6.208 179.572 5.856C180.308 5.488 181.108 5.304 181.972 5.304C182.948 5.304 183.732 5.6 184.324 6.192C184.932 6.784 185.236 7.552 185.236 8.496C185.236 8.992 185.156 9.48 184.996 9.96L183.532 14.688ZM192.167 5.304C193.095 5.304 193.775 5.48 194.207 5.832C194.639 6.184 194.855 6.664 194.855 7.272C194.855 7.64 194.799 7.992 194.687 8.328L192.479 15.504C192.431 15.696 192.407 15.864 192.407 16.008C192.407 16.216 192.447 16.384 192.527 16.512C192.607 16.624 192.719 16.736 192.863 16.848C192.975 16.96 193.055 17.056 193.103 17.136C193.151 17.2 193.159 17.288 193.127 17.4C193.047 17.608 192.887 17.76 192.647 17.856C192.407 17.952 192.039 18 191.543 18H186.071C185.655 18 185.351 17.936 185.159 17.808C184.967 17.664 184.903 17.48 184.967 17.256C185.031 17.064 185.199 16.896 185.471 16.752C185.711 16.624 185.911 16.472 186.071 16.296C186.231 16.12 186.367 15.84 186.479 15.456L188.567 8.52C188.615 8.376 188.639 8.256 188.639 8.16C188.639 7.984 188.599 7.848 188.519 7.752C188.439 7.64 188.319 7.528 188.159 7.416C187.999 7.288 187.887 7.176 187.823 7.08C187.759 6.984 187.751 6.856 187.799 6.696C187.895 6.328 188.399 6.008 189.311 5.736C190.223 5.448 191.175 5.304 192.167 5.304ZM193.775 -1.43051e-06C194.399 -1.43051e-06 194.919 0.207999 195.335 0.623999C195.751 1.024 195.959 1.52 195.959 2.112C195.959 2.528 195.847 2.936 195.623 3.336C195.415 3.736 195.111 4.064 194.711 4.32C194.327 4.56 193.895 4.68 193.415 4.68C192.807 4.68 192.295 4.48 191.879 4.08C191.479 3.664 191.271 3.152 191.255 2.544C191.255 2.144 191.359 1.752 191.567 1.368C191.775 0.967999 192.071 0.639999 192.455 0.383999C192.839 0.127999 193.279 -1.43051e-06 193.775 -1.43051e-06ZM209.501 14.688C209.469 14.752 209.453 14.848 209.453 14.976C209.453 15.088 209.477 15.176 209.525 15.24C209.589 15.304 209.669 15.336 209.765 15.336C209.957 15.336 210.117 15.256 210.245 15.096C210.389 14.92 210.485 14.832 210.533 14.832C210.613 14.832 210.677 14.888 210.725 15C210.773 15.096 210.797 15.216 210.797 15.36C210.813 15.824 210.661 16.28 210.341 16.728C210.021 17.16 209.549 17.52 208.925 17.808C208.317 18.08 207.581 18.216 206.717 18.216C205.661 18.216 204.821 17.976 204.197 17.496C203.573 17 203.253 16.344 203.237 15.528C203.237 14.936 203.381 14.272 203.669 13.536L204.989 10.08C205.069 9.872 205.109 9.704 205.109 9.576C205.109 9.368 205.037 9.208 204.893 9.096C204.765 8.968 204.605 8.904 204.413 8.904C204.061 8.904 203.725 9.072 203.405 9.408C203.085 9.728 202.853 10.128 202.709 10.608L201.221 15.504C201.157 15.68 201.125 15.848 201.125 16.008C201.125 16.2 201.165 16.36 201.245 16.488C201.325 16.6 201.437 16.72 201.581 16.848C201.693 16.944 201.773 17.032 201.821 17.112C201.869 17.192 201.877 17.288 201.845 17.4C201.781 17.608 201.629 17.76 201.389 17.856C201.149 17.952 200.773 18 200.261 18H194.789C194.373 18 194.077 17.936 193.901 17.808C193.709 17.664 193.637 17.48 193.685 17.256C193.749 17.064 193.917 16.896 194.189 16.752C194.429 16.624 194.629 16.472 194.789 16.296C194.949 16.12 195.085 15.84 195.197 15.456L197.333 8.52C197.365 8.44 197.381 8.328 197.381 8.184C197.381 8.008 197.341 7.872 197.261 7.776C197.197 7.68 197.085 7.56 196.925 7.416C196.765 7.288 196.653 7.176 196.589 7.08C196.525 6.984 196.517 6.856 196.565 6.696C196.661 6.328 197.165 6.008 198.077 5.736C198.989 5.448 199.941 5.304 200.933 5.304C201.733 5.304 202.365 5.528 202.829 5.976C203.293 6.408 203.501 7.016 203.453 7.8C204.109 6.856 204.805 6.208 205.541 5.856C206.277 5.488 207.077 5.304 207.941 5.304C208.917 5.304 209.701 5.6 210.293 6.192C210.901 6.784 211.205 7.552 211.205 8.496C211.205 8.992 211.125 9.48 210.965 9.96L209.501 14.688ZM226.368 1.392C226.88 1.392 227.376 1.504 227.856 1.728C228.352 1.936 228.752 2.232 229.056 2.616C229.376 2.984 229.536 3.384 229.536 3.816C229.536 4.76 228.896 5.232 227.616 5.232C227.248 5.232 226.96 5.208 226.752 5.16C226.56 5.096 226.328 5 226.056 4.872C226.008 4.984 225.984 5.144 225.984 5.352C225.984 5.608 226.024 5.912 226.104 6.264C226.2 6.616 226.312 6.944 226.44 7.248C226.776 7.744 226.944 8.336 226.944 9.024C226.944 9.328 226.904 9.696 226.824 10.128C226.632 10.96 226.208 11.72 225.552 12.408C224.912 13.096 224.08 13.64 223.056 14.04C222.048 14.424 220.936 14.616 219.72 14.616C218.792 14.616 217.92 14.552 217.104 14.424C216.864 14.632 216.744 14.888 216.744 15.192C216.744 15.4 216.84 15.576 217.032 15.72C217.224 15.848 217.544 15.912 217.992 15.912H221.592C222.824 15.912 223.784 16.128 224.472 16.56C225.16 16.976 225.504 17.576 225.504 18.36C225.504 18.648 225.456 18.944 225.36 19.248C225.168 19.872 224.728 20.448 224.04 20.976C223.368 21.52 222.416 21.96 221.184 22.296C219.952 22.632 218.456 22.8 216.696 22.8C215.128 22.8 213.8 22.664 212.712 22.392C211.624 22.12 210.816 21.744 210.288 21.264C209.744 20.8 209.472 20.28 209.472 19.704C209.472 19.576 209.504 19.384 209.568 19.128C209.712 18.664 210.04 18.288 210.552 18C211.048 17.696 211.872 17.496 213.024 17.4C212.64 17.032 212.448 16.592 212.448 16.08C212.448 15.904 212.472 15.72 212.52 15.528C212.776 14.696 213.528 14.08 214.776 13.68C213.576 13.024 212.976 12.064 212.976 10.8C212.976 10.448 213.024 10.08 213.12 9.696C213.312 8.864 213.736 8.112 214.392 7.44C215.048 6.752 215.888 6.208 216.912 5.808C217.936 5.408 219.056 5.208 220.272 5.208C222.176 5.208 223.672 5.456 224.76 5.952C224.52 5.584 224.328 5.192 224.184 4.776C224.056 4.344 223.992 3.952 223.992 3.6C223.992 2.992 224.184 2.472 224.568 2.04C224.968 1.608 225.568 1.392 226.368 1.392ZM221.16 9.912C221.416 9.096 221.544 8.472 221.544 8.04C221.544 7.496 221.312 7.224 220.848 7.224C220.448 7.224 220.096 7.424 219.792 7.824C219.504 8.208 219.208 8.904 218.904 9.912C218.648 10.744 218.52 11.376 218.52 11.808C218.52 12.336 218.744 12.6 219.192 12.6C219.592 12.6 219.944 12.4 220.248 12C220.552 11.6 220.856 10.904 221.16 9.912ZM216.384 18.336C215.936 18.336 215.528 18.312 215.16 18.264C214.968 18.504 214.872 18.824 214.872 19.224C214.888 19.624 215.048 19.912 215.352 20.088C215.672 20.264 216.16 20.352 216.816 20.352C217.616 20.352 218.264 20.232 218.76 19.992C219.272 19.752 219.528 19.408 219.528 18.96C219.528 18.768 219.456 18.616 219.312 18.504C219.168 18.392 218.96 18.336 218.688 18.336H216.384ZM236.359 12.264C236.519 12.456 236.591 12.608 236.575 12.72C236.527 12.88 236.391 13.016 236.167 13.128C235.943 13.224 235.703 13.272 235.447 13.272C234.695 13.272 234.079 13.088 233.599 12.72C233.135 12.336 232.903 11.848 232.903 11.256C232.903 11.032 232.935 10.824 232.999 10.632C233.143 10.12 233.415 9.704 233.815 9.384C234.231 9.048 234.839 8.648 235.639 8.184C236.503 7.704 237.167 7.264 237.631 6.864C238.095 6.464 238.415 5.944 238.591 5.304C238.639 5.08 238.663 4.872 238.663 4.68C238.663 4.136 238.479 3.72 238.111 3.432C237.743 3.144 237.351 3 236.935 3C236.487 3 236.095 3.064 235.759 3.192C235.935 3.656 236.023 4.144 236.023 4.656C236.023 4.896 235.999 5.112 235.951 5.304C235.775 5.912 235.455 6.384 234.991 6.72C234.527 7.056 233.935 7.224 233.215 7.224C232.351 7.224 231.655 6.992 231.127 6.528C230.599 6.048 230.335 5.44 230.335 4.704C230.335 4.448 230.367 4.2 230.431 3.96C230.671 2.936 231.383 2.152 232.567 1.608C233.767 1.048 235.279 0.767999 237.103 0.767999C238.655 0.767999 240.015 1.016 241.183 1.512C242.351 2.008 243.247 2.672 243.871 3.504C244.495 4.32 244.807 5.2 244.807 6.144C244.807 6.432 244.767 6.752 244.687 7.104C244.495 7.888 244.159 8.52 243.679 9C243.215 9.464 242.527 9.856 241.615 10.176C240.719 10.48 239.471 10.768 237.871 11.04C237.263 11.152 236.847 11.256 236.623 11.352C236.399 11.448 236.255 11.576 236.191 11.736L236.167 11.832C236.167 11.928 236.231 12.072 236.359 12.264ZM234.439 13.824C235.079 13.824 235.615 14.008 236.047 14.376C236.479 14.728 236.695 15.168 236.695 15.696C236.711 16.08 236.599 16.456 236.359 16.824C236.135 17.192 235.815 17.496 235.399 17.736C234.983 17.96 234.519 18.072 234.007 18.072C233.351 18.072 232.807 17.888 232.375 17.52C231.959 17.136 231.751 16.672 231.751 16.128C231.751 15.76 231.863 15.4 232.087 15.048C232.327 14.696 232.647 14.408 233.047 14.184C233.463 13.944 233.927 13.824 234.439 13.824Z" fill="#4F4F4F"/>
</svg>
